<mxfile host="app.diagrams.net" modified="2023-11-20T15:16:47.633Z" agent="Mozilla/5.0 (Windows NT 10.0; Win64; x64) AppleWebKit/537.36 (KHTML, like Gecko) Chrome/119.0.0.0 Safari/537.36" etag="Yj8msGz54B8lWveZWdzj" version="22.1.3" type="device" pages="2">
  <diagram name="Страница — 1" id="Nd0zr17Eo7cc95A9aSMg">
    <mxGraphModel dx="1290" dy="566" grid="1" gridSize="10" guides="1" tooltips="1" connect="1" arrows="1" fold="1" page="1" pageScale="1" pageWidth="3300" pageHeight="4681" math="0" shadow="0">
      <root>
        <mxCell id="0" />
        <mxCell id="1" parent="0" />
        <mxCell id="23p0zSZ361LVQk1D0dd5-1" value="Student&lt;br&gt;" style="rounded=0;whiteSpace=wrap;html=1;fillColor=#ffe6cc;strokeColor=#d79b00;" parent="1" vertex="1">
          <mxGeometry x="236" y="760" width="80" height="40" as="geometry" />
        </mxCell>
        <mxCell id="23p0zSZ361LVQk1D0dd5-46" style="edgeStyle=orthogonalEdgeStyle;rounded=0;orthogonalLoop=1;jettySize=auto;html=1;entryX=0;entryY=0.5;entryDx=0;entryDy=0;" parent="1" source="23p0zSZ361LVQk1D0dd5-2" target="23p0zSZ361LVQk1D0dd5-1" edge="1">
          <mxGeometry relative="1" as="geometry" />
        </mxCell>
        <mxCell id="23p0zSZ361LVQk1D0dd5-2" value="&lt;u&gt;ID&lt;/u&gt;" style="ellipse;whiteSpace=wrap;html=1;fillColor=#d5e8d4;strokeColor=#82b366;" parent="1" vertex="1">
          <mxGeometry x="106" y="684.5" width="80" height="30" as="geometry" />
        </mxCell>
        <mxCell id="23p0zSZ361LVQk1D0dd5-44" style="edgeStyle=orthogonalEdgeStyle;rounded=0;orthogonalLoop=1;jettySize=auto;html=1;entryX=0;entryY=0.5;entryDx=0;entryDy=0;" parent="1" source="23p0zSZ361LVQk1D0dd5-3" target="23p0zSZ361LVQk1D0dd5-1" edge="1">
          <mxGeometry relative="1" as="geometry" />
        </mxCell>
        <mxCell id="23p0zSZ361LVQk1D0dd5-3" value="Name" style="ellipse;whiteSpace=wrap;html=1;fillColor=#d5e8d4;strokeColor=#82b366;" parent="1" vertex="1">
          <mxGeometry x="106" y="724.5" width="80" height="30" as="geometry" />
        </mxCell>
        <mxCell id="AqB2Rs3mdMIoe19Igv_4-3" style="edgeStyle=orthogonalEdgeStyle;rounded=0;orthogonalLoop=1;jettySize=auto;html=1;entryX=0;entryY=0.5;entryDx=0;entryDy=0;" parent="1" source="23p0zSZ361LVQk1D0dd5-7" target="23p0zSZ361LVQk1D0dd5-1" edge="1">
          <mxGeometry relative="1" as="geometry" />
        </mxCell>
        <mxCell id="23p0zSZ361LVQk1D0dd5-7" value="Surname" style="ellipse;whiteSpace=wrap;html=1;fillColor=#d5e8d4;strokeColor=#82b366;" parent="1" vertex="1">
          <mxGeometry x="106" y="764.5" width="80" height="30" as="geometry" />
        </mxCell>
        <mxCell id="23p0zSZ361LVQk1D0dd5-47" style="edgeStyle=orthogonalEdgeStyle;rounded=0;orthogonalLoop=1;jettySize=auto;html=1;entryX=0;entryY=0.5;entryDx=0;entryDy=0;" parent="1" source="23p0zSZ361LVQk1D0dd5-8" target="23p0zSZ361LVQk1D0dd5-1" edge="1">
          <mxGeometry relative="1" as="geometry" />
        </mxCell>
        <mxCell id="23p0zSZ361LVQk1D0dd5-8" value="Date of Birth" style="ellipse;whiteSpace=wrap;html=1;fillColor=#d5e8d4;strokeColor=#82b366;" parent="1" vertex="1">
          <mxGeometry x="106" y="804.5" width="80" height="30" as="geometry" />
        </mxCell>
        <mxCell id="23p0zSZ361LVQk1D0dd5-21" value="Class" style="rounded=0;whiteSpace=wrap;html=1;fillColor=#ffe6cc;strokeColor=#d79b00;" parent="1" vertex="1">
          <mxGeometry x="440" y="290" width="80" height="40" as="geometry" />
        </mxCell>
        <mxCell id="JzworsTE5C7mJlJ6R-Ys-2" style="edgeStyle=orthogonalEdgeStyle;rounded=0;orthogonalLoop=1;jettySize=auto;html=1;" parent="1" source="23p0zSZ361LVQk1D0dd5-22" target="23p0zSZ361LVQk1D0dd5-21" edge="1">
          <mxGeometry relative="1" as="geometry">
            <Array as="points">
              <mxPoint x="295" y="270" />
              <mxPoint x="480" y="270" />
            </Array>
          </mxGeometry>
        </mxCell>
        <mxCell id="23p0zSZ361LVQk1D0dd5-22" value="&lt;u&gt;ID&lt;/u&gt;" style="ellipse;whiteSpace=wrap;html=1;fillColor=#d5e8d4;strokeColor=#82b366;" parent="1" vertex="1">
          <mxGeometry x="250" y="220" width="90" height="30" as="geometry" />
        </mxCell>
        <mxCell id="JzworsTE5C7mJlJ6R-Ys-3" style="edgeStyle=orthogonalEdgeStyle;rounded=0;orthogonalLoop=1;jettySize=auto;html=1;" parent="1" source="23p0zSZ361LVQk1D0dd5-23" target="23p0zSZ361LVQk1D0dd5-21" edge="1">
          <mxGeometry relative="1" as="geometry" />
        </mxCell>
        <mxCell id="23p0zSZ361LVQk1D0dd5-23" value="Class Number" style="ellipse;whiteSpace=wrap;html=1;fillColor=#d5e8d4;strokeColor=#82b366;" parent="1" vertex="1">
          <mxGeometry x="355" y="220" width="90" height="30" as="geometry" />
        </mxCell>
        <mxCell id="JzworsTE5C7mJlJ6R-Ys-4" style="edgeStyle=orthogonalEdgeStyle;rounded=0;orthogonalLoop=1;jettySize=auto;html=1;" parent="1" source="23p0zSZ361LVQk1D0dd5-25" target="23p0zSZ361LVQk1D0dd5-21" edge="1">
          <mxGeometry relative="1" as="geometry" />
        </mxCell>
        <mxCell id="23p0zSZ361LVQk1D0dd5-25" value="Alphabetic identifier" style="ellipse;whiteSpace=wrap;html=1;fillColor=#d5e8d4;strokeColor=#82b366;" parent="1" vertex="1">
          <mxGeometry x="460" y="220" width="90" height="30" as="geometry" />
        </mxCell>
        <mxCell id="23p0zSZ361LVQk1D0dd5-30" value="Belongs to" style="shape=associativeEntity;whiteSpace=wrap;html=1;align=center;fillColor=#dae8fc;strokeColor=#6c8ebf;" parent="1" vertex="1">
          <mxGeometry x="236" y="419" width="80" height="40" as="geometry" />
        </mxCell>
        <mxCell id="23p0zSZ361LVQk1D0dd5-49" value="" style="shape=link;html=1;rounded=0;exitX=0;exitY=1;exitDx=0;exitDy=0;entryX=1;entryY=0;entryDx=0;entryDy=0;" parent="1" source="23p0zSZ361LVQk1D0dd5-21" target="23p0zSZ361LVQk1D0dd5-30" edge="1">
          <mxGeometry relative="1" as="geometry">
            <mxPoint x="479.71000000000004" y="330" as="sourcePoint" />
            <mxPoint x="480" y="370" as="targetPoint" />
          </mxGeometry>
        </mxCell>
        <mxCell id="23p0zSZ361LVQk1D0dd5-54" value="Parent" style="rounded=0;whiteSpace=wrap;html=1;fillColor=#ffe6cc;strokeColor=#d79b00;" parent="1" vertex="1">
          <mxGeometry x="236" y="1042" width="80" height="38" as="geometry" />
        </mxCell>
        <mxCell id="23p0zSZ361LVQk1D0dd5-63" style="edgeStyle=orthogonalEdgeStyle;rounded=0;orthogonalLoop=1;jettySize=auto;html=1;entryX=0;entryY=0.5;entryDx=0;entryDy=0;" parent="1" source="23p0zSZ361LVQk1D0dd5-57" target="23p0zSZ361LVQk1D0dd5-54" edge="1">
          <mxGeometry relative="1" as="geometry" />
        </mxCell>
        <mxCell id="23p0zSZ361LVQk1D0dd5-57" value="&lt;u&gt;ID&lt;/u&gt;" style="ellipse;whiteSpace=wrap;html=1;fillColor=#d5e8d4;strokeColor=#82b366;" parent="1" vertex="1">
          <mxGeometry x="106" y="980" width="80" height="30" as="geometry" />
        </mxCell>
        <mxCell id="23p0zSZ361LVQk1D0dd5-64" style="edgeStyle=orthogonalEdgeStyle;rounded=0;orthogonalLoop=1;jettySize=auto;html=1;entryX=0;entryY=0.5;entryDx=0;entryDy=0;" parent="1" source="23p0zSZ361LVQk1D0dd5-58" target="23p0zSZ361LVQk1D0dd5-54" edge="1">
          <mxGeometry relative="1" as="geometry" />
        </mxCell>
        <mxCell id="23p0zSZ361LVQk1D0dd5-58" value="Name" style="ellipse;whiteSpace=wrap;html=1;fillColor=#d5e8d4;strokeColor=#82b366;" parent="1" vertex="1">
          <mxGeometry x="106" y="1020" width="80" height="30" as="geometry" />
        </mxCell>
        <mxCell id="23p0zSZ361LVQk1D0dd5-65" style="edgeStyle=orthogonalEdgeStyle;rounded=0;orthogonalLoop=1;jettySize=auto;html=1;entryX=0;entryY=0.5;entryDx=0;entryDy=0;" parent="1" source="23p0zSZ361LVQk1D0dd5-59" target="23p0zSZ361LVQk1D0dd5-54" edge="1">
          <mxGeometry relative="1" as="geometry" />
        </mxCell>
        <mxCell id="23p0zSZ361LVQk1D0dd5-59" value="Surname" style="ellipse;whiteSpace=wrap;html=1;fillColor=#d5e8d4;strokeColor=#82b366;" parent="1" vertex="1">
          <mxGeometry x="106" y="1060" width="80" height="30" as="geometry" />
        </mxCell>
        <mxCell id="23p0zSZ361LVQk1D0dd5-66" style="edgeStyle=orthogonalEdgeStyle;rounded=0;orthogonalLoop=1;jettySize=auto;html=1;entryX=0;entryY=0.5;entryDx=0;entryDy=0;" parent="1" source="23p0zSZ361LVQk1D0dd5-60" target="23p0zSZ361LVQk1D0dd5-54" edge="1">
          <mxGeometry relative="1" as="geometry" />
        </mxCell>
        <mxCell id="23p0zSZ361LVQk1D0dd5-60" value="Contact Info" style="ellipse;whiteSpace=wrap;html=1;fillColor=#d5e8d4;strokeColor=#82b366;" parent="1" vertex="1">
          <mxGeometry x="106" y="1100" width="80" height="30" as="geometry" />
        </mxCell>
        <mxCell id="23p0zSZ361LVQk1D0dd5-62" value="Has" style="shape=associativeEntity;whiteSpace=wrap;html=1;align=center;fillColor=#dae8fc;strokeColor=#6c8ebf;" parent="1" vertex="1">
          <mxGeometry x="236" y="880" width="80" height="40" as="geometry" />
        </mxCell>
        <mxCell id="23p0zSZ361LVQk1D0dd5-68" value="" style="shape=link;html=1;rounded=0;exitX=0.5;exitY=1;exitDx=0;exitDy=0;entryX=0.5;entryY=0;entryDx=0;entryDy=0;" parent="1" edge="1">
          <mxGeometry relative="1" as="geometry">
            <mxPoint x="275.64" y="800" as="sourcePoint" />
            <mxPoint x="275.93" y="880" as="targetPoint" />
          </mxGeometry>
        </mxCell>
        <mxCell id="23p0zSZ361LVQk1D0dd5-69" value="N" style="resizable=0;html=1;align=right;verticalAlign=bottom;" parent="23p0zSZ361LVQk1D0dd5-68" connectable="0" vertex="1">
          <mxGeometry x="1" relative="1" as="geometry">
            <mxPoint x="-8" y="-59" as="offset" />
          </mxGeometry>
        </mxCell>
        <mxCell id="23p0zSZ361LVQk1D0dd5-73" value="Teacher" style="rounded=0;whiteSpace=wrap;html=1;fillColor=#ffe6cc;strokeColor=#d79b00;" parent="1" vertex="1">
          <mxGeometry x="840" y="140" width="80" height="40" as="geometry" />
        </mxCell>
        <mxCell id="23p0zSZ361LVQk1D0dd5-78" style="edgeStyle=orthogonalEdgeStyle;rounded=0;orthogonalLoop=1;jettySize=auto;html=1;entryX=0.5;entryY=0;entryDx=0;entryDy=0;" parent="1" source="23p0zSZ361LVQk1D0dd5-74" target="23p0zSZ361LVQk1D0dd5-73" edge="1">
          <mxGeometry relative="1" as="geometry">
            <Array as="points">
              <mxPoint x="725" y="120" />
              <mxPoint x="880" y="120" />
            </Array>
          </mxGeometry>
        </mxCell>
        <mxCell id="23p0zSZ361LVQk1D0dd5-74" value="&lt;u&gt;ID&lt;/u&gt;" style="ellipse;whiteSpace=wrap;html=1;fillColor=#d5e8d4;strokeColor=#82b366;" parent="1" vertex="1">
          <mxGeometry x="680" y="70" width="90" height="30" as="geometry" />
        </mxCell>
        <mxCell id="23p0zSZ361LVQk1D0dd5-79" style="edgeStyle=orthogonalEdgeStyle;rounded=0;orthogonalLoop=1;jettySize=auto;html=1;exitX=0.5;exitY=1;exitDx=0;exitDy=0;entryX=0.5;entryY=0;entryDx=0;entryDy=0;" parent="1" source="23p0zSZ361LVQk1D0dd5-75" target="23p0zSZ361LVQk1D0dd5-73" edge="1">
          <mxGeometry relative="1" as="geometry" />
        </mxCell>
        <mxCell id="23p0zSZ361LVQk1D0dd5-75" value="Name" style="ellipse;whiteSpace=wrap;html=1;fillColor=#d5e8d4;strokeColor=#82b366;" parent="1" vertex="1">
          <mxGeometry x="780" y="70" width="90" height="30" as="geometry" />
        </mxCell>
        <mxCell id="23p0zSZ361LVQk1D0dd5-80" style="edgeStyle=orthogonalEdgeStyle;rounded=0;orthogonalLoop=1;jettySize=auto;html=1;entryX=0.5;entryY=0;entryDx=0;entryDy=0;" parent="1" source="23p0zSZ361LVQk1D0dd5-76" target="23p0zSZ361LVQk1D0dd5-73" edge="1">
          <mxGeometry relative="1" as="geometry" />
        </mxCell>
        <mxCell id="23p0zSZ361LVQk1D0dd5-76" value="Surname" style="ellipse;whiteSpace=wrap;html=1;fillColor=#d5e8d4;strokeColor=#82b366;" parent="1" vertex="1">
          <mxGeometry x="880" y="70" width="90" height="30" as="geometry" />
        </mxCell>
        <mxCell id="23p0zSZ361LVQk1D0dd5-81" style="edgeStyle=orthogonalEdgeStyle;rounded=0;orthogonalLoop=1;jettySize=auto;html=1;entryX=0.5;entryY=0;entryDx=0;entryDy=0;" parent="1" source="23p0zSZ361LVQk1D0dd5-77" target="23p0zSZ361LVQk1D0dd5-73" edge="1">
          <mxGeometry relative="1" as="geometry">
            <Array as="points">
              <mxPoint x="1025" y="120" />
              <mxPoint x="880" y="120" />
            </Array>
          </mxGeometry>
        </mxCell>
        <mxCell id="23p0zSZ361LVQk1D0dd5-77" value="SubjectId" style="ellipse;whiteSpace=wrap;html=1;fillColor=#d5e8d4;strokeColor=#82b366;" parent="1" vertex="1">
          <mxGeometry x="980" y="70" width="90" height="30" as="geometry" />
        </mxCell>
        <mxCell id="23p0zSZ361LVQk1D0dd5-82" value="Has" style="shape=associativeEntity;whiteSpace=wrap;html=1;align=center;fillColor=#dae8fc;strokeColor=#6c8ebf;" parent="1" vertex="1">
          <mxGeometry x="640" y="140" width="80" height="40" as="geometry" />
        </mxCell>
        <mxCell id="23p0zSZ361LVQk1D0dd5-83" value="" style="shape=link;html=1;rounded=0;exitX=0.5;exitY=1;exitDx=0;exitDy=0;entryX=1;entryY=0.5;entryDx=0;entryDy=0;" parent="1" source="23p0zSZ361LVQk1D0dd5-82" target="23p0zSZ361LVQk1D0dd5-21" edge="1">
          <mxGeometry relative="1" as="geometry">
            <mxPoint x="580" y="140" as="sourcePoint" />
            <mxPoint x="580.29" y="220" as="targetPoint" />
            <Array as="points">
              <mxPoint x="680" y="310" />
            </Array>
          </mxGeometry>
        </mxCell>
        <mxCell id="23p0zSZ361LVQk1D0dd5-89" value="" style="shape=link;html=1;rounded=0;exitX=0;exitY=0.5;exitDx=0;exitDy=0;entryX=1;entryY=0.5;entryDx=0;entryDy=0;" parent="1" edge="1">
          <mxGeometry relative="1" as="geometry">
            <mxPoint x="840" y="159.55" as="sourcePoint" />
            <mxPoint x="720" y="159.55" as="targetPoint" />
          </mxGeometry>
        </mxCell>
        <mxCell id="23p0zSZ361LVQk1D0dd5-95" value="Subject" style="rounded=0;whiteSpace=wrap;html=1;fillColor=#ffe6cc;strokeColor=#d79b00;" parent="1" vertex="1">
          <mxGeometry x="840" y="419" width="80" height="40" as="geometry" />
        </mxCell>
        <mxCell id="AqB2Rs3mdMIoe19Igv_4-44" style="edgeStyle=orthogonalEdgeStyle;rounded=0;orthogonalLoop=1;jettySize=auto;html=1;entryX=0;entryY=1;entryDx=0;entryDy=0;" parent="1" source="23p0zSZ361LVQk1D0dd5-96" target="23p0zSZ361LVQk1D0dd5-95" edge="1">
          <mxGeometry relative="1" as="geometry">
            <Array as="points">
              <mxPoint x="710" y="500" />
              <mxPoint x="840" y="500" />
            </Array>
          </mxGeometry>
        </mxCell>
        <mxCell id="23p0zSZ361LVQk1D0dd5-96" value="&lt;u&gt;ID&lt;/u&gt;" style="ellipse;whiteSpace=wrap;html=1;fillColor=#d5e8d4;strokeColor=#82b366;" parent="1" vertex="1">
          <mxGeometry x="665" y="542" width="90" height="30" as="geometry" />
        </mxCell>
        <mxCell id="AqB2Rs3mdMIoe19Igv_4-37" style="edgeStyle=orthogonalEdgeStyle;rounded=0;orthogonalLoop=1;jettySize=auto;html=1;entryX=0;entryY=1;entryDx=0;entryDy=0;" parent="1" source="23p0zSZ361LVQk1D0dd5-97" target="23p0zSZ361LVQk1D0dd5-95" edge="1">
          <mxGeometry relative="1" as="geometry">
            <Array as="points">
              <mxPoint x="810" y="501" />
              <mxPoint x="840" y="501" />
            </Array>
          </mxGeometry>
        </mxCell>
        <mxCell id="23p0zSZ361LVQk1D0dd5-97" value="Name" style="ellipse;whiteSpace=wrap;html=1;fillColor=#d5e8d4;strokeColor=#82b366;" parent="1" vertex="1">
          <mxGeometry x="765" y="542" width="90" height="30" as="geometry" />
        </mxCell>
        <mxCell id="23p0zSZ361LVQk1D0dd5-101" value="Studies" style="shape=associativeEntity;whiteSpace=wrap;html=1;align=center;fillColor=#dae8fc;strokeColor=#6c8ebf;" parent="1" vertex="1">
          <mxGeometry x="640" y="419" width="80" height="40" as="geometry" />
        </mxCell>
        <mxCell id="23p0zSZ361LVQk1D0dd5-107" value="" style="shape=link;html=1;rounded=0;entryX=1;entryY=1;entryDx=0;entryDy=0;exitX=0;exitY=0;exitDx=0;exitDy=0;" parent="1" source="23p0zSZ361LVQk1D0dd5-101" target="23p0zSZ361LVQk1D0dd5-21" edge="1">
          <mxGeometry relative="1" as="geometry">
            <mxPoint x="740" y="380" as="sourcePoint" />
            <mxPoint x="580" y="379" as="targetPoint" />
            <Array as="points" />
          </mxGeometry>
        </mxCell>
        <mxCell id="23p0zSZ361LVQk1D0dd5-109" value="" style="shape=link;html=1;rounded=0;exitX=0;exitY=0.5;exitDx=0;exitDy=0;entryX=1;entryY=0.5;entryDx=0;entryDy=0;" parent="1" edge="1">
          <mxGeometry relative="1" as="geometry">
            <mxPoint x="840" y="438.57" as="sourcePoint" />
            <mxPoint x="720" y="438.57" as="targetPoint" />
          </mxGeometry>
        </mxCell>
        <mxCell id="23p0zSZ361LVQk1D0dd5-113" value="M" style="resizable=0;html=1;align=right;verticalAlign=bottom;" parent="1" connectable="0" vertex="1">
          <mxGeometry x="837.9999980946282" y="437.9994743801801" as="geometry" />
        </mxCell>
        <mxCell id="23p0zSZ361LVQk1D0dd5-116" value="N" style="resizable=0;html=1;align=right;verticalAlign=bottom;" parent="1" connectable="0" vertex="1">
          <mxGeometry x="531.9999980946282" y="306.99947438018035" as="geometry" />
        </mxCell>
        <mxCell id="23p0zSZ361LVQk1D0dd5-117" value="N" style="resizable=0;html=1;align=right;verticalAlign=bottom;" parent="1" connectable="0" vertex="1">
          <mxGeometry x="526.9999980946282" y="357.99947438018035" as="geometry" />
        </mxCell>
        <mxCell id="23p0zSZ361LVQk1D0dd5-118" value="N" style="resizable=0;html=1;align=right;verticalAlign=bottom;" parent="1" connectable="0" vertex="1">
          <mxGeometry x="263.99999809462815" y="754.9994743801803" as="geometry" />
        </mxCell>
        <mxCell id="23p0zSZ361LVQk1D0dd5-120" value="Teaches" style="shape=associativeEntity;whiteSpace=wrap;html=1;align=center;fillColor=#dae8fc;strokeColor=#6c8ebf;" parent="1" vertex="1">
          <mxGeometry x="840" y="279" width="80" height="40" as="geometry" />
        </mxCell>
        <mxCell id="23p0zSZ361LVQk1D0dd5-121" value="" style="shape=link;html=1;rounded=0;entryX=0.5;entryY=1;entryDx=0;entryDy=0;exitX=0.5;exitY=0;exitDx=0;exitDy=0;" parent="1" edge="1">
          <mxGeometry relative="1" as="geometry">
            <mxPoint x="880" y="419" as="sourcePoint" />
            <mxPoint x="880" y="320" as="targetPoint" />
          </mxGeometry>
        </mxCell>
        <mxCell id="23p0zSZ361LVQk1D0dd5-122" value="M" style="text;html=1;align=center;verticalAlign=middle;resizable=0;points=[];autosize=1;strokeColor=none;fillColor=none;" parent="1" vertex="1">
          <mxGeometry x="815" y="133" width="30" height="30" as="geometry" />
        </mxCell>
        <mxCell id="23p0zSZ361LVQk1D0dd5-124" value="N" style="resizable=0;html=1;align=right;verticalAlign=bottom;" parent="1" connectable="0" vertex="1">
          <mxGeometry x="874.9999980946282" y="197.99947438018035" as="geometry" />
        </mxCell>
        <mxCell id="23p0zSZ361LVQk1D0dd5-127" value="Grade" style="rounded=0;whiteSpace=wrap;html=1;fillColor=#ffe6cc;strokeColor=#d79b00;" parent="1" vertex="1">
          <mxGeometry x="1680" y="760" width="80" height="40" as="geometry" />
        </mxCell>
        <mxCell id="AqB2Rs3mdMIoe19Igv_4-20" style="edgeStyle=orthogonalEdgeStyle;rounded=0;orthogonalLoop=1;jettySize=auto;html=1;" parent="1" source="23p0zSZ361LVQk1D0dd5-128" target="23p0zSZ361LVQk1D0dd5-127" edge="1">
          <mxGeometry relative="1" as="geometry">
            <Array as="points">
              <mxPoint x="1465" y="830" />
              <mxPoint x="1720" y="830" />
            </Array>
          </mxGeometry>
        </mxCell>
        <mxCell id="23p0zSZ361LVQk1D0dd5-128" value="&lt;u&gt;ID&lt;/u&gt;" style="ellipse;whiteSpace=wrap;html=1;fillColor=#d5e8d4;strokeColor=#82b366;" parent="1" vertex="1">
          <mxGeometry x="1420" y="860" width="90" height="30" as="geometry" />
        </mxCell>
        <mxCell id="AqB2Rs3mdMIoe19Igv_4-22" style="edgeStyle=orthogonalEdgeStyle;rounded=0;orthogonalLoop=1;jettySize=auto;html=1;" parent="1" source="23p0zSZ361LVQk1D0dd5-129" target="23p0zSZ361LVQk1D0dd5-127" edge="1">
          <mxGeometry relative="1" as="geometry">
            <Array as="points">
              <mxPoint x="1570" y="830" />
              <mxPoint x="1720" y="830" />
            </Array>
          </mxGeometry>
        </mxCell>
        <mxCell id="23p0zSZ361LVQk1D0dd5-129" value="Value" style="ellipse;whiteSpace=wrap;html=1;fillColor=#d5e8d4;strokeColor=#82b366;" parent="1" vertex="1">
          <mxGeometry x="1525" y="860" width="90" height="30" as="geometry" />
        </mxCell>
        <mxCell id="AqB2Rs3mdMIoe19Igv_4-23" style="edgeStyle=orthogonalEdgeStyle;rounded=0;orthogonalLoop=1;jettySize=auto;html=1;entryX=0.5;entryY=1;entryDx=0;entryDy=0;" parent="1" source="23p0zSZ361LVQk1D0dd5-130" target="23p0zSZ361LVQk1D0dd5-127" edge="1">
          <mxGeometry relative="1" as="geometry" />
        </mxCell>
        <mxCell id="23p0zSZ361LVQk1D0dd5-130" value="StudentId" style="ellipse;whiteSpace=wrap;html=1;fillColor=#d5e8d4;strokeColor=#82b366;" parent="1" vertex="1">
          <mxGeometry x="1625" y="860" width="90" height="30" as="geometry" />
        </mxCell>
        <mxCell id="AqB2Rs3mdMIoe19Igv_4-24" style="edgeStyle=orthogonalEdgeStyle;rounded=0;orthogonalLoop=1;jettySize=auto;html=1;entryX=0.5;entryY=1;entryDx=0;entryDy=0;" parent="1" source="23p0zSZ361LVQk1D0dd5-131" target="23p0zSZ361LVQk1D0dd5-127" edge="1">
          <mxGeometry relative="1" as="geometry" />
        </mxCell>
        <mxCell id="23p0zSZ361LVQk1D0dd5-131" value="SubjectId" style="ellipse;whiteSpace=wrap;html=1;fillColor=#d5e8d4;strokeColor=#82b366;" parent="1" vertex="1">
          <mxGeometry x="1725" y="860" width="90" height="30" as="geometry" />
        </mxCell>
        <mxCell id="AqB2Rs3mdMIoe19Igv_4-25" style="edgeStyle=orthogonalEdgeStyle;rounded=0;orthogonalLoop=1;jettySize=auto;html=1;entryX=0.5;entryY=1;entryDx=0;entryDy=0;" parent="1" source="23p0zSZ361LVQk1D0dd5-132" target="23p0zSZ361LVQk1D0dd5-127" edge="1">
          <mxGeometry relative="1" as="geometry">
            <Array as="points">
              <mxPoint x="1870" y="830" />
              <mxPoint x="1720" y="830" />
            </Array>
          </mxGeometry>
        </mxCell>
        <mxCell id="23p0zSZ361LVQk1D0dd5-132" value="LessonId" style="ellipse;whiteSpace=wrap;html=1;fillColor=#d5e8d4;strokeColor=#82b366;" parent="1" vertex="1">
          <mxGeometry x="1825" y="860" width="90" height="30" as="geometry" />
        </mxCell>
        <mxCell id="23p0zSZ361LVQk1D0dd5-139" value="Has" style="shape=associativeEntity;whiteSpace=wrap;html=1;align=center;fillColor=#dae8fc;strokeColor=#6c8ebf;" parent="1" vertex="1">
          <mxGeometry x="720" y="760" width="80" height="40" as="geometry" />
        </mxCell>
        <mxCell id="23p0zSZ361LVQk1D0dd5-141" value="" style="shape=link;html=1;rounded=0;entryX=1;entryY=0.5;entryDx=0;entryDy=0;exitX=0;exitY=0.5;exitDx=0;exitDy=0;" parent="1" source="23p0zSZ361LVQk1D0dd5-139" target="23p0zSZ361LVQk1D0dd5-1" edge="1">
          <mxGeometry relative="1" as="geometry">
            <mxPoint x="680" y="525" as="sourcePoint" />
            <mxPoint x="560" y="596" as="targetPoint" />
            <Array as="points" />
          </mxGeometry>
        </mxCell>
        <mxCell id="23p0zSZ361LVQk1D0dd5-142" value="" style="shape=link;html=1;rounded=0;exitX=0;exitY=0.5;exitDx=0;exitDy=0;entryX=1;entryY=0.5;entryDx=0;entryDy=0;" parent="1" source="23p0zSZ361LVQk1D0dd5-127" target="23p0zSZ361LVQk1D0dd5-139" edge="1">
          <mxGeometry relative="1" as="geometry">
            <mxPoint x="950" y="599.47" as="sourcePoint" />
            <mxPoint x="830" y="599.47" as="targetPoint" />
          </mxGeometry>
        </mxCell>
        <mxCell id="23p0zSZ361LVQk1D0dd5-144" value="1" style="text;html=1;align=center;verticalAlign=middle;resizable=0;points=[];autosize=1;strokeColor=none;fillColor=none;" parent="1" vertex="1">
          <mxGeometry x="340" y="752" width="30" height="30" as="geometry" />
        </mxCell>
        <mxCell id="23p0zSZ361LVQk1D0dd5-145" value="M" style="resizable=0;html=1;align=right;verticalAlign=bottom;" parent="1" connectable="0" vertex="1">
          <mxGeometry x="939.9999980946282" y="989.9994743801801" as="geometry">
            <mxPoint x="668" y="-182" as="offset" />
          </mxGeometry>
        </mxCell>
        <mxCell id="23p0zSZ361LVQk1D0dd5-146" value="Enters Grades&lt;span style=&quot;color: rgb(209, 213, 219); font-family: Söhne, ui-sans-serif, system-ui, -apple-system, &amp;quot;Segoe UI&amp;quot;, Roboto, Ubuntu, Cantarell, &amp;quot;Noto Sans&amp;quot;, sans-serif, &amp;quot;Helvetica Neue&amp;quot;, Arial, &amp;quot;Apple Color Emoji&amp;quot;, &amp;quot;Segoe UI Emoji&amp;quot;, &amp;quot;Segoe UI Symbol&amp;quot;, &amp;quot;Noto Color Emoji&amp;quot;; font-size: 16px; text-align: left; background-color: rgb(68, 70, 84);&quot;&gt; &lt;/span&gt;" style="shape=associativeEntity;whiteSpace=wrap;html=1;align=center;fillColor=#dae8fc;strokeColor=#6c8ebf;" parent="1" vertex="1">
          <mxGeometry x="1715" y="140" width="80" height="40" as="geometry" />
        </mxCell>
        <mxCell id="23p0zSZ361LVQk1D0dd5-149" value="" style="endArrow=none;html=1;rounded=0;entryX=1;entryY=0.5;entryDx=0;entryDy=0;exitX=0;exitY=0.5;exitDx=0;exitDy=0;" parent="1" source="23p0zSZ361LVQk1D0dd5-146" target="23p0zSZ361LVQk1D0dd5-73" edge="1">
          <mxGeometry relative="1" as="geometry">
            <mxPoint x="1710" y="370" as="sourcePoint" />
            <mxPoint x="1190" y="220" as="targetPoint" />
            <Array as="points" />
          </mxGeometry>
        </mxCell>
        <mxCell id="23p0zSZ361LVQk1D0dd5-153" value="M" style="text;html=1;align=center;verticalAlign=middle;resizable=0;points=[];autosize=1;strokeColor=none;fillColor=none;" parent="1" vertex="1">
          <mxGeometry x="1765" y="660" width="30" height="30" as="geometry" />
        </mxCell>
        <mxCell id="23p0zSZ361LVQk1D0dd5-154" value="Has Grades" style="shape=associativeEntity;whiteSpace=wrap;html=1;align=center;fillColor=#dae8fc;strokeColor=#6c8ebf;" parent="1" vertex="1">
          <mxGeometry x="1425" y="419" width="80" height="40" as="geometry" />
        </mxCell>
        <mxCell id="23p0zSZ361LVQk1D0dd5-158" value="M" style="text;html=1;align=center;verticalAlign=middle;resizable=0;points=[];autosize=1;strokeColor=none;fillColor=none;" parent="1" vertex="1">
          <mxGeometry x="1670" y="654.5" width="30" height="30" as="geometry" />
        </mxCell>
        <mxCell id="AqB2Rs3mdMIoe19Igv_4-2" style="edgeStyle=orthogonalEdgeStyle;rounded=0;orthogonalLoop=1;jettySize=auto;html=1;entryX=0;entryY=0.5;entryDx=0;entryDy=0;" parent="1" source="AqB2Rs3mdMIoe19Igv_4-1" target="23p0zSZ361LVQk1D0dd5-1" edge="1">
          <mxGeometry relative="1" as="geometry" />
        </mxCell>
        <mxCell id="AqB2Rs3mdMIoe19Igv_4-1" value="ClassId" style="ellipse;whiteSpace=wrap;html=1;fillColor=#d5e8d4;strokeColor=#82b366;" parent="1" vertex="1">
          <mxGeometry x="106" y="845.5" width="80" height="30" as="geometry" />
        </mxCell>
        <mxCell id="AqB2Rs3mdMIoe19Igv_4-4" value="1" style="text;html=1;align=center;verticalAlign=middle;resizable=0;points=[];autosize=1;strokeColor=none;fillColor=none;" parent="1" vertex="1">
          <mxGeometry x="390" y="310" width="30" height="30" as="geometry" />
        </mxCell>
        <mxCell id="AqB2Rs3mdMIoe19Igv_4-10" value="M" style="text;html=1;align=center;verticalAlign=middle;resizable=0;points=[];autosize=1;strokeColor=none;fillColor=none;" parent="1" vertex="1">
          <mxGeometry x="250" y="1012" width="30" height="30" as="geometry" />
        </mxCell>
        <mxCell id="AqB2Rs3mdMIoe19Igv_4-12" value="M" style="resizable=0;html=1;align=right;verticalAlign=bottom;" parent="1" connectable="0" vertex="1">
          <mxGeometry x="875.0000000000002" y="419" as="geometry" />
        </mxCell>
        <mxCell id="AqB2Rs3mdMIoe19Igv_4-13" value="" style="endArrow=none;html=1;rounded=0;exitX=0.5;exitY=1;exitDx=0;exitDy=0;entryX=0.5;entryY=0;entryDx=0;entryDy=0;" parent="1" edge="1">
          <mxGeometry relative="1" as="geometry">
            <mxPoint x="880" y="180" as="sourcePoint" />
            <mxPoint x="880" y="280" as="targetPoint" />
            <Array as="points" />
          </mxGeometry>
        </mxCell>
        <mxCell id="AqB2Rs3mdMIoe19Igv_4-26" style="edgeStyle=orthogonalEdgeStyle;rounded=0;orthogonalLoop=1;jettySize=auto;html=1;entryX=0.5;entryY=1;entryDx=0;entryDy=0;" parent="1" source="AqB2Rs3mdMIoe19Igv_4-15" target="23p0zSZ361LVQk1D0dd5-127" edge="1">
          <mxGeometry relative="1" as="geometry">
            <Array as="points">
              <mxPoint x="1975" y="830" />
              <mxPoint x="1720" y="830" />
            </Array>
          </mxGeometry>
        </mxCell>
        <mxCell id="AqB2Rs3mdMIoe19Igv_4-15" value="TeacherId" style="ellipse;whiteSpace=wrap;html=1;fillColor=#d5e8d4;strokeColor=#82b366;" parent="1" vertex="1">
          <mxGeometry x="1930" y="860" width="90" height="30" as="geometry" />
        </mxCell>
        <mxCell id="AqB2Rs3mdMIoe19Igv_4-39" value="Lesson" style="rounded=0;whiteSpace=wrap;html=1;fillColor=#ffe6cc;strokeColor=#d79b00;" parent="1" vertex="1">
          <mxGeometry x="1240" y="600" width="80" height="40" as="geometry" />
        </mxCell>
        <mxCell id="AqB2Rs3mdMIoe19Igv_4-45" value="Relates to" style="shape=associativeEntity;whiteSpace=wrap;html=1;align=center;fillColor=#dae8fc;strokeColor=#6c8ebf;" parent="1" vertex="1">
          <mxGeometry x="1040" y="520" width="80" height="40" as="geometry" />
        </mxCell>
        <mxCell id="AqB2Rs3mdMIoe19Igv_4-46" value="" style="shape=link;html=1;rounded=0;exitX=0;exitY=0;exitDx=0;exitDy=0;entryX=1;entryY=1;entryDx=0;entryDy=0;width=5.789473684210527;" parent="1" source="AqB2Rs3mdMIoe19Igv_4-45" target="23p0zSZ361LVQk1D0dd5-95" edge="1">
          <mxGeometry relative="1" as="geometry">
            <mxPoint x="1060" y="500" as="sourcePoint" />
            <mxPoint x="940" y="500" as="targetPoint" />
          </mxGeometry>
        </mxCell>
        <mxCell id="AqB2Rs3mdMIoe19Igv_4-47" value="" style="shape=link;html=1;rounded=0;exitX=0;exitY=0;exitDx=0;exitDy=0;entryX=1;entryY=1;entryDx=0;entryDy=0;width=5.789473684210527;" parent="1" source="AqB2Rs3mdMIoe19Igv_4-39" target="AqB2Rs3mdMIoe19Igv_4-45" edge="1">
          <mxGeometry relative="1" as="geometry">
            <mxPoint x="1320" y="621" as="sourcePoint" />
            <mxPoint x="1200" y="560" as="targetPoint" />
          </mxGeometry>
        </mxCell>
        <mxCell id="AqB2Rs3mdMIoe19Igv_4-48" value="1" style="resizable=0;html=1;align=right;verticalAlign=bottom;" parent="1" connectable="0" vertex="1">
          <mxGeometry x="960" y="469.9999999999999" as="geometry" />
        </mxCell>
        <mxCell id="AqB2Rs3mdMIoe19Igv_4-49" value="M" style="resizable=0;html=1;align=right;verticalAlign=bottom;" parent="1" connectable="0" vertex="1">
          <mxGeometry x="1229.9999980946282" y="589.9994743801801" as="geometry">
            <mxPoint x="-4" y="-4" as="offset" />
          </mxGeometry>
        </mxCell>
        <mxCell id="AqB2Rs3mdMIoe19Igv_4-50" value="Teaches" style="shape=associativeEntity;whiteSpace=wrap;html=1;align=center;fillColor=#dae8fc;strokeColor=#6c8ebf;" parent="1" vertex="1">
          <mxGeometry x="1240" y="279" width="80" height="40" as="geometry" />
        </mxCell>
        <mxCell id="AqB2Rs3mdMIoe19Igv_4-54" value="1" style="resizable=0;html=1;align=right;verticalAlign=bottom;" parent="1" connectable="0" vertex="1">
          <mxGeometry x="960" y="199.9999999999999" as="geometry" />
        </mxCell>
        <mxCell id="AqB2Rs3mdMIoe19Igv_4-55" value="M" style="resizable=0;html=1;align=right;verticalAlign=bottom;" parent="1" connectable="0" vertex="1">
          <mxGeometry x="1299.9999980946282" y="589.9994743801801" as="geometry" />
        </mxCell>
        <mxCell id="AqB2Rs3mdMIoe19Igv_4-57" value="Belongs to" style="shape=associativeEntity;whiteSpace=wrap;html=1;align=center;fillColor=#dae8fc;strokeColor=#6c8ebf;" parent="1" vertex="1">
          <mxGeometry x="440" y="600" width="80" height="40" as="geometry" />
        </mxCell>
        <mxCell id="AqB2Rs3mdMIoe19Igv_4-58" value="" style="shape=link;html=1;rounded=0;exitX=0.5;exitY=0;exitDx=0;exitDy=0;entryX=0.5;entryY=1;entryDx=0;entryDy=0;width=5.789473684210527;" parent="1" source="AqB2Rs3mdMIoe19Igv_4-57" target="23p0zSZ361LVQk1D0dd5-21" edge="1">
          <mxGeometry relative="1" as="geometry">
            <mxPoint x="587" y="520" as="sourcePoint" />
            <mxPoint x="467" y="459" as="targetPoint" />
          </mxGeometry>
        </mxCell>
        <mxCell id="AqB2Rs3mdMIoe19Igv_4-59" value="1" style="resizable=0;html=1;align=right;verticalAlign=bottom;" parent="1" connectable="0" vertex="1">
          <mxGeometry x="470" y="357.9999999999999" as="geometry" />
        </mxCell>
        <mxCell id="AqB2Rs3mdMIoe19Igv_4-60" value="" style="shape=link;html=1;rounded=0;exitX=0;exitY=0.5;exitDx=0;exitDy=0;entryX=1;entryY=0.5;entryDx=0;entryDy=0;width=5.789473684210527;" parent="1" source="AqB2Rs3mdMIoe19Igv_4-39" target="AqB2Rs3mdMIoe19Igv_4-57" edge="1">
          <mxGeometry relative="1" as="geometry">
            <mxPoint x="1110" y="680" as="sourcePoint" />
            <mxPoint x="990" y="640" as="targetPoint" />
          </mxGeometry>
        </mxCell>
        <mxCell id="AqB2Rs3mdMIoe19Igv_4-62" value="M" style="resizable=0;html=1;align=right;verticalAlign=bottom;" parent="1" connectable="0" vertex="1">
          <mxGeometry x="1229.9999980946282" y="654.4994743801801" as="geometry">
            <mxPoint x="-4" y="-4" as="offset" />
          </mxGeometry>
        </mxCell>
        <mxCell id="AqB2Rs3mdMIoe19Igv_4-63" value="Related to" style="shape=associativeEntity;whiteSpace=wrap;html=1;align=center;fillColor=#dae8fc;strokeColor=#6c8ebf;" parent="1" vertex="1">
          <mxGeometry x="1480" y="674.5" width="80" height="40" as="geometry" />
        </mxCell>
        <mxCell id="AqB2Rs3mdMIoe19Igv_4-64" value="" style="endArrow=none;html=1;rounded=0;exitX=1;exitY=1;exitDx=0;exitDy=0;entryX=0;entryY=0.5;entryDx=0;entryDy=0;" parent="1" source="AqB2Rs3mdMIoe19Igv_4-39" target="AqB2Rs3mdMIoe19Igv_4-63" edge="1">
          <mxGeometry relative="1" as="geometry">
            <mxPoint x="1410" y="674.5" as="sourcePoint" />
            <mxPoint x="1410" y="774.5" as="targetPoint" />
            <Array as="points" />
          </mxGeometry>
        </mxCell>
        <mxCell id="AqB2Rs3mdMIoe19Igv_4-65" value="" style="shape=link;html=1;rounded=0;exitX=0;exitY=0;exitDx=0;exitDy=0;entryX=1;entryY=0.5;entryDx=0;entryDy=0;width=5.789473684210527;" parent="1" source="23p0zSZ361LVQk1D0dd5-127" target="AqB2Rs3mdMIoe19Igv_4-63" edge="1">
          <mxGeometry relative="1" as="geometry">
            <mxPoint x="1680" y="715.5" as="sourcePoint" />
            <mxPoint x="1560" y="654.5" as="targetPoint" />
          </mxGeometry>
        </mxCell>
        <mxCell id="AqB2Rs3mdMIoe19Igv_4-66" value="M" style="text;html=1;align=center;verticalAlign=middle;resizable=0;points=[];autosize=1;strokeColor=none;fillColor=none;" parent="1" vertex="1">
          <mxGeometry x="1320" y="644.5" width="30" height="30" as="geometry" />
        </mxCell>
        <mxCell id="AqB2Rs3mdMIoe19Igv_4-67" value="N" style="resizable=0;html=1;align=right;verticalAlign=bottom;" parent="1" connectable="0" vertex="1">
          <mxGeometry x="1624.9999980946282" y="751.9994743801803" as="geometry" />
        </mxCell>
        <mxCell id="AqB2Rs3mdMIoe19Igv_4-86" style="edgeStyle=orthogonalEdgeStyle;rounded=0;orthogonalLoop=1;jettySize=auto;html=1;" parent="1" source="AqB2Rs3mdMIoe19Igv_4-68" target="AqB2Rs3mdMIoe19Igv_4-39" edge="1">
          <mxGeometry relative="1" as="geometry">
            <Array as="points">
              <mxPoint x="900" y="690" />
              <mxPoint x="1280" y="690" />
            </Array>
          </mxGeometry>
        </mxCell>
        <mxCell id="AqB2Rs3mdMIoe19Igv_4-68" value="&lt;u&gt;ID&lt;/u&gt;" style="ellipse;whiteSpace=wrap;html=1;fillColor=#d5e8d4;strokeColor=#82b366;" parent="1" vertex="1">
          <mxGeometry x="855" y="714.5" width="90" height="30" as="geometry" />
        </mxCell>
        <mxCell id="AqB2Rs3mdMIoe19Igv_4-88" style="edgeStyle=orthogonalEdgeStyle;rounded=0;orthogonalLoop=1;jettySize=auto;html=1;" parent="1" source="AqB2Rs3mdMIoe19Igv_4-69" target="AqB2Rs3mdMIoe19Igv_4-39" edge="1">
          <mxGeometry relative="1" as="geometry">
            <Array as="points">
              <mxPoint x="1000" y="690" />
              <mxPoint x="1280" y="690" />
            </Array>
          </mxGeometry>
        </mxCell>
        <mxCell id="AqB2Rs3mdMIoe19Igv_4-69" value="Date" style="ellipse;whiteSpace=wrap;html=1;fillColor=#d5e8d4;strokeColor=#82b366;" parent="1" vertex="1">
          <mxGeometry x="955" y="714.5" width="90" height="30" as="geometry" />
        </mxCell>
        <mxCell id="AqB2Rs3mdMIoe19Igv_4-89" style="edgeStyle=orthogonalEdgeStyle;rounded=0;orthogonalLoop=1;jettySize=auto;html=1;" parent="1" source="AqB2Rs3mdMIoe19Igv_4-70" target="AqB2Rs3mdMIoe19Igv_4-39" edge="1">
          <mxGeometry relative="1" as="geometry">
            <Array as="points">
              <mxPoint x="1100" y="690" />
              <mxPoint x="1280" y="690" />
            </Array>
          </mxGeometry>
        </mxCell>
        <mxCell id="AqB2Rs3mdMIoe19Igv_4-70" value="TeacherId" style="ellipse;whiteSpace=wrap;html=1;fillColor=#d5e8d4;strokeColor=#82b366;" parent="1" vertex="1">
          <mxGeometry x="1055" y="714.5" width="90" height="30" as="geometry" />
        </mxCell>
        <mxCell id="AqB2Rs3mdMIoe19Igv_4-90" style="edgeStyle=orthogonalEdgeStyle;rounded=0;orthogonalLoop=1;jettySize=auto;html=1;entryX=0.5;entryY=1;entryDx=0;entryDy=0;" parent="1" source="AqB2Rs3mdMIoe19Igv_4-71" target="AqB2Rs3mdMIoe19Igv_4-39" edge="1">
          <mxGeometry relative="1" as="geometry">
            <Array as="points">
              <mxPoint x="1200" y="690" />
              <mxPoint x="1280" y="690" />
            </Array>
          </mxGeometry>
        </mxCell>
        <mxCell id="AqB2Rs3mdMIoe19Igv_4-71" value="ClassId" style="ellipse;whiteSpace=wrap;html=1;fillColor=#d5e8d4;strokeColor=#82b366;" parent="1" vertex="1">
          <mxGeometry x="1155" y="714.5" width="90" height="30" as="geometry" />
        </mxCell>
        <mxCell id="AqB2Rs3mdMIoe19Igv_4-87" style="edgeStyle=orthogonalEdgeStyle;rounded=0;orthogonalLoop=1;jettySize=auto;html=1;" parent="1" source="AqB2Rs3mdMIoe19Igv_4-72" target="AqB2Rs3mdMIoe19Igv_4-39" edge="1">
          <mxGeometry relative="1" as="geometry">
            <Array as="points">
              <mxPoint x="1305" y="690" />
              <mxPoint x="1280" y="690" />
            </Array>
          </mxGeometry>
        </mxCell>
        <mxCell id="AqB2Rs3mdMIoe19Igv_4-72" value="SubjectId" style="ellipse;whiteSpace=wrap;html=1;fillColor=#d5e8d4;strokeColor=#82b366;" parent="1" vertex="1">
          <mxGeometry x="1260" y="714.5" width="90" height="30" as="geometry" />
        </mxCell>
        <mxCell id="JzworsTE5C7mJlJ6R-Ys-5" style="edgeStyle=orthogonalEdgeStyle;rounded=0;orthogonalLoop=1;jettySize=auto;html=1;" parent="1" source="JzworsTE5C7mJlJ6R-Ys-1" target="23p0zSZ361LVQk1D0dd5-21" edge="1">
          <mxGeometry relative="1" as="geometry">
            <Array as="points">
              <mxPoint x="615" y="270" />
              <mxPoint x="480" y="270" />
            </Array>
          </mxGeometry>
        </mxCell>
        <mxCell id="JzworsTE5C7mJlJ6R-Ys-1" value="Year" style="ellipse;whiteSpace=wrap;html=1;fillColor=#d5e8d4;strokeColor=#82b366;" parent="1" vertex="1">
          <mxGeometry x="570" y="220" width="90" height="30" as="geometry" />
        </mxCell>
        <mxCell id="Z8cgdyl40fi6AjvnPEl4-1" value="" style="shape=link;html=1;rounded=0;exitX=0.5;exitY=1;exitDx=0;exitDy=0;entryX=0.5;entryY=0;entryDx=0;entryDy=0;" parent="1" source="23p0zSZ361LVQk1D0dd5-30" target="23p0zSZ361LVQk1D0dd5-1" edge="1">
          <mxGeometry relative="1" as="geometry">
            <mxPoint x="450" y="340" as="sourcePoint" />
            <mxPoint x="326" y="429" as="targetPoint" />
          </mxGeometry>
        </mxCell>
        <mxCell id="Z8cgdyl40fi6AjvnPEl4-2" value="" style="shape=link;html=1;rounded=0;exitX=0.5;exitY=0;exitDx=0;exitDy=0;entryX=1;entryY=1;entryDx=0;entryDy=0;width=5.789473684210527;" parent="1" source="23p0zSZ361LVQk1D0dd5-127" target="23p0zSZ361LVQk1D0dd5-154" edge="1">
          <mxGeometry relative="1" as="geometry">
            <mxPoint x="2007.5" y="436.95" as="sourcePoint" />
            <mxPoint x="1502.5" y="436.95" as="targetPoint" />
          </mxGeometry>
        </mxCell>
        <mxCell id="Z8cgdyl40fi6AjvnPEl4-3" value="1" style="resizable=0;html=1;align=right;verticalAlign=bottom;rotation=0;" parent="1" connectable="0" vertex="1">
          <mxGeometry x="940" y="429.9999999999999" as="geometry" />
        </mxCell>
        <mxCell id="Z8cgdyl40fi6AjvnPEl4-5" value="1" style="resizable=0;html=1;align=right;verticalAlign=bottom;" parent="1" connectable="0" vertex="1">
          <mxGeometry x="940" y="147.9999999999999" as="geometry" />
        </mxCell>
        <mxCell id="Z8cgdyl40fi6AjvnPEl4-6" value="" style="endArrow=none;html=1;rounded=0;exitX=1;exitY=1;exitDx=0;exitDy=0;entryX=0;entryY=0.5;entryDx=0;entryDy=0;" parent="1" source="23p0zSZ361LVQk1D0dd5-73" target="AqB2Rs3mdMIoe19Igv_4-50" edge="1">
          <mxGeometry relative="1" as="geometry">
            <mxPoint x="1099.57" y="230" as="sourcePoint" />
            <mxPoint x="1099.57" y="511" as="targetPoint" />
            <Array as="points">
              <mxPoint x="1030" y="299" />
            </Array>
          </mxGeometry>
        </mxCell>
        <mxCell id="Z8cgdyl40fi6AjvnPEl4-8" value="" style="shape=link;html=1;rounded=0;exitX=0.5;exitY=1;exitDx=0;exitDy=0;" parent="1" source="23p0zSZ361LVQk1D0dd5-62" target="23p0zSZ361LVQk1D0dd5-54" edge="1">
          <mxGeometry relative="1" as="geometry">
            <mxPoint x="285.64" y="810" as="sourcePoint" />
            <mxPoint x="390" y="1040" as="targetPoint" />
          </mxGeometry>
        </mxCell>
        <mxCell id="Z8cgdyl40fi6AjvnPEl4-10" value="" style="shape=link;html=1;rounded=0;entryX=0.5;entryY=1;entryDx=0;entryDy=0;exitX=0.5;exitY=0;exitDx=0;exitDy=0;" parent="1" source="AqB2Rs3mdMIoe19Igv_4-39" edge="1">
          <mxGeometry relative="1" as="geometry">
            <mxPoint x="1279.57" y="418" as="sourcePoint" />
            <mxPoint x="1279.57" y="319" as="targetPoint" />
          </mxGeometry>
        </mxCell>
        <mxCell id="Z8cgdyl40fi6AjvnPEl4-11" value="" style="shape=link;html=1;rounded=0;entryX=0.5;entryY=1;entryDx=0;entryDy=0;exitX=1;exitY=0;exitDx=0;exitDy=0;" parent="1" source="23p0zSZ361LVQk1D0dd5-127" edge="1">
          <mxGeometry relative="1" as="geometry">
            <mxPoint x="1754.9" y="461" as="sourcePoint" />
            <mxPoint x="1754.4699999999998" y="180" as="targetPoint" />
          </mxGeometry>
        </mxCell>
        <mxCell id="Z8cgdyl40fi6AjvnPEl4-12" value="" style="endArrow=none;html=1;rounded=0;exitX=1;exitY=0.5;exitDx=0;exitDy=0;entryX=0;entryY=0.5;entryDx=0;entryDy=0;" parent="1" source="23p0zSZ361LVQk1D0dd5-95" target="23p0zSZ361LVQk1D0dd5-154" edge="1">
          <mxGeometry relative="1" as="geometry">
            <mxPoint x="1130" y="389" as="sourcePoint" />
            <mxPoint x="1130" y="489" as="targetPoint" />
            <Array as="points" />
          </mxGeometry>
        </mxCell>
      </root>
    </mxGraphModel>
  </diagram>
  <diagram id="ZV72nYSdx2qGLrBD1kMe" name="Страница — 2">
    <mxGraphModel dx="1290" dy="566" grid="1" gridSize="10" guides="1" tooltips="1" connect="1" arrows="1" fold="1" page="1" pageScale="1" pageWidth="3300" pageHeight="4681" math="0" shadow="0">
      <root>
        <mxCell id="0" />
        <mxCell id="1" parent="0" />
        <mxCell id="uDrUdtQKj3C7chHD4qGm-1" value="Student" style="swimlane;childLayout=stackLayout;horizontal=1;startSize=30;horizontalStack=0;rounded=1;fontSize=14;fontStyle=0;strokeWidth=2;resizeParent=0;resizeLast=1;shadow=0;dashed=0;align=center;fillColor=#d5e8d4;strokeColor=#82b366;" parent="1" vertex="1">
          <mxGeometry x="250" y="720" width="160" height="160" as="geometry">
            <mxRectangle x="410" y="50" width="70" height="30" as="alternateBounds" />
          </mxGeometry>
        </mxCell>
        <mxCell id="uDrUdtQKj3C7chHD4qGm-2" value="* id&#xa;name&#xa;surname&#xa;dateOfBirth&#xa;ClassId" style="align=left;strokeColor=none;fillColor=none;spacingLeft=4;fontSize=12;verticalAlign=top;resizable=0;rotatable=0;part=1;" parent="uDrUdtQKj3C7chHD4qGm-1" vertex="1">
          <mxGeometry y="30" width="160" height="130" as="geometry" />
        </mxCell>
        <mxCell id="Uc1FhO2TL07He-8L5F3z-3" value="Parent" style="swimlane;childLayout=stackLayout;horizontal=1;startSize=30;horizontalStack=0;rounded=1;fontSize=14;fontStyle=0;strokeWidth=2;resizeParent=0;resizeLast=1;shadow=0;dashed=0;align=center;fillColor=#d5e8d4;strokeColor=#82b366;" parent="1" vertex="1">
          <mxGeometry x="250" y="1000" width="160" height="150" as="geometry">
            <mxRectangle x="410" y="50" width="70" height="30" as="alternateBounds" />
          </mxGeometry>
        </mxCell>
        <mxCell id="Uc1FhO2TL07He-8L5F3z-4" value="* id&#xa;name&#xa;surname&#xa;contactInfo" style="align=left;strokeColor=none;fillColor=none;spacingLeft=4;fontSize=12;verticalAlign=top;resizable=0;rotatable=0;part=1;" parent="Uc1FhO2TL07He-8L5F3z-3" vertex="1">
          <mxGeometry y="30" width="160" height="120" as="geometry" />
        </mxCell>
        <mxCell id="Uc1FhO2TL07He-8L5F3z-5" value="Class" style="swimlane;childLayout=stackLayout;horizontal=1;startSize=30;horizontalStack=0;rounded=1;fontSize=14;fontStyle=0;strokeWidth=2;resizeParent=0;resizeLast=1;shadow=0;dashed=0;align=center;fillColor=#d5e8d4;strokeColor=#82b366;" parent="1" vertex="1">
          <mxGeometry x="500" y="400" width="160" height="160" as="geometry">
            <mxRectangle x="410" y="50" width="70" height="30" as="alternateBounds" />
          </mxGeometry>
        </mxCell>
        <mxCell id="Uc1FhO2TL07He-8L5F3z-6" value="* id&#xa;classNumber&#xa;alphabeticIdentifier&#xa;year" style="align=left;strokeColor=none;fillColor=none;spacingLeft=4;fontSize=12;verticalAlign=top;resizable=0;rotatable=0;part=1;" parent="Uc1FhO2TL07He-8L5F3z-5" vertex="1">
          <mxGeometry y="30" width="160" height="130" as="geometry" />
        </mxCell>
        <mxCell id="Uc1FhO2TL07He-8L5F3z-7" value="Teacher" style="swimlane;childLayout=stackLayout;horizontal=1;startSize=30;horizontalStack=0;rounded=1;fontSize=14;fontStyle=0;strokeWidth=2;resizeParent=0;resizeLast=1;shadow=0;dashed=0;align=center;fillColor=#d5e8d4;strokeColor=#82b366;" parent="1" vertex="1">
          <mxGeometry x="960" y="240" width="160" height="160" as="geometry">
            <mxRectangle x="410" y="50" width="70" height="30" as="alternateBounds" />
          </mxGeometry>
        </mxCell>
        <mxCell id="Uc1FhO2TL07He-8L5F3z-8" value="* id&#xa;name&#xa;surname" style="align=left;strokeColor=none;fillColor=none;spacingLeft=4;fontSize=12;verticalAlign=top;resizable=0;rotatable=0;part=1;" parent="Uc1FhO2TL07He-8L5F3z-7" vertex="1">
          <mxGeometry y="30" width="160" height="130" as="geometry" />
        </mxCell>
        <mxCell id="Uc1FhO2TL07He-8L5F3z-9" value="Subject" style="swimlane;childLayout=stackLayout;horizontal=1;startSize=30;horizontalStack=0;rounded=1;fontSize=14;fontStyle=0;strokeWidth=2;resizeParent=0;resizeLast=1;shadow=0;dashed=0;align=center;fillColor=#d5e8d4;strokeColor=#82b366;" parent="1" vertex="1">
          <mxGeometry x="960" y="520" width="160" height="160" as="geometry">
            <mxRectangle x="410" y="50" width="70" height="30" as="alternateBounds" />
          </mxGeometry>
        </mxCell>
        <mxCell id="Uc1FhO2TL07He-8L5F3z-10" value="* id&#xa;name&#xa;" style="align=left;strokeColor=none;fillColor=none;spacingLeft=4;fontSize=12;verticalAlign=top;resizable=0;rotatable=0;part=1;" parent="Uc1FhO2TL07He-8L5F3z-9" vertex="1">
          <mxGeometry y="30" width="160" height="130" as="geometry" />
        </mxCell>
        <mxCell id="Uc1FhO2TL07He-8L5F3z-11" value="Lesson" style="swimlane;childLayout=stackLayout;horizontal=1;startSize=30;horizontalStack=0;rounded=1;fontSize=14;fontStyle=0;strokeWidth=2;resizeParent=0;resizeLast=1;shadow=0;dashed=0;align=center;fillColor=#d5e8d4;strokeColor=#82b366;" parent="1" vertex="1">
          <mxGeometry x="1480" y="920" width="160" height="150" as="geometry">
            <mxRectangle x="410" y="50" width="70" height="30" as="alternateBounds" />
          </mxGeometry>
        </mxCell>
        <mxCell id="Uc1FhO2TL07He-8L5F3z-12" value="* id&#xa;date&#xa;teacherId&#xa;classId&#xa;subjectId" style="align=left;strokeColor=none;fillColor=none;spacingLeft=4;fontSize=12;verticalAlign=top;resizable=0;rotatable=0;part=1;" parent="Uc1FhO2TL07He-8L5F3z-11" vertex="1">
          <mxGeometry y="30" width="160" height="120" as="geometry" />
        </mxCell>
        <mxCell id="Uc1FhO2TL07He-8L5F3z-13" value="Grade" style="swimlane;childLayout=stackLayout;horizontal=1;startSize=30;horizontalStack=0;rounded=1;fontSize=14;fontStyle=0;strokeWidth=2;resizeParent=0;resizeLast=1;shadow=0;dashed=0;align=center;fillColor=#d5e8d4;strokeColor=#82b366;" parent="1" vertex="1">
          <mxGeometry x="1200" y="730" width="160" height="150" as="geometry">
            <mxRectangle x="410" y="50" width="70" height="30" as="alternateBounds" />
          </mxGeometry>
        </mxCell>
        <mxCell id="Uc1FhO2TL07He-8L5F3z-14" value="* id&#xa;value&#xa;studentId&#xa;subjectId&#xa;lessonId&#xa;teacherId" style="align=left;strokeColor=none;fillColor=none;spacingLeft=4;fontSize=12;verticalAlign=top;resizable=0;rotatable=0;part=1;" parent="Uc1FhO2TL07He-8L5F3z-13" vertex="1">
          <mxGeometry y="30" width="160" height="120" as="geometry" />
        </mxCell>
        <mxCell id="Uc1FhO2TL07He-8L5F3z-19" value="" style="fontSize=12;html=1;endArrow=ERoneToMany;endFill=0;startArrow=ERoneToMany;rounded=1;startFill=0;" parent="1" source="uDrUdtQKj3C7chHD4qGm-2" target="Uc1FhO2TL07He-8L5F3z-3" edge="1">
          <mxGeometry width="100" height="100" relative="1" as="geometry">
            <mxPoint x="320" y="950" as="sourcePoint" />
            <mxPoint x="349" y="1009" as="targetPoint" />
          </mxGeometry>
        </mxCell>
        <mxCell id="Uc1FhO2TL07He-8L5F3z-22" value="" style="fontSize=12;html=1;endArrow=ERoneToMany;endFill=0;startArrow=ERmandOne;rounded=1;startFill=0;" parent="1" source="Uc1FhO2TL07He-8L5F3z-6" target="uDrUdtQKj3C7chHD4qGm-1" edge="1">
          <mxGeometry width="100" height="100" relative="1" as="geometry">
            <mxPoint x="460" y="480" as="sourcePoint" />
            <mxPoint x="390" y="680" as="targetPoint" />
            <Array as="points">
              <mxPoint x="330" y="495" />
            </Array>
          </mxGeometry>
        </mxCell>
        <mxCell id="Uc1FhO2TL07He-8L5F3z-24" value="" style="fontSize=12;html=1;endArrow=ERzeroToMany;endFill=0;startArrow=ERoneToMany;rounded=1;startFill=0;exitX=0;exitY=0.5;exitDx=0;exitDy=0;" parent="1" source="Uc1FhO2TL07He-8L5F3z-8" edge="1">
          <mxGeometry width="100" height="100" relative="1" as="geometry">
            <mxPoint x="950" y="495" as="sourcePoint" />
            <mxPoint x="580" y="400" as="targetPoint" />
            <Array as="points">
              <mxPoint x="580" y="335" />
              <mxPoint x="580" y="380" />
            </Array>
          </mxGeometry>
        </mxCell>
        <mxCell id="Uc1FhO2TL07He-8L5F3z-27" value="" style="fontSize=12;html=1;endArrow=ERoneToMany;endFill=0;startArrow=ERzeroToMany;rounded=1;startFill=0;exitX=1;exitY=1;exitDx=0;exitDy=0;entryX=0;entryY=0.5;entryDx=0;entryDy=0;" parent="1" source="Uc1FhO2TL07He-8L5F3z-6" target="Uc1FhO2TL07He-8L5F3z-10" edge="1">
          <mxGeometry width="100" height="100" relative="1" as="geometry">
            <mxPoint x="670" y="720" as="sourcePoint" />
            <mxPoint x="670" y="900" as="targetPoint" />
            <Array as="points">
              <mxPoint x="750" y="615" />
            </Array>
          </mxGeometry>
        </mxCell>
        <mxCell id="Uc1FhO2TL07He-8L5F3z-29" value="" style="fontSize=12;html=1;endArrow=ERzeroToMany;endFill=0;startArrow=ERoneToMany;rounded=1;startFill=0;entryX=0.5;entryY=0;entryDx=0;entryDy=0;" parent="1" target="Uc1FhO2TL07He-8L5F3z-9" edge="1">
          <mxGeometry width="100" height="100" relative="1" as="geometry">
            <mxPoint x="1040" y="400" as="sourcePoint" />
            <mxPoint x="1040" y="620" as="targetPoint" />
          </mxGeometry>
        </mxCell>
        <mxCell id="Uc1FhO2TL07He-8L5F3z-30" value="" style="fontSize=12;html=1;endArrow=ERzeroToMany;endFill=0;startArrow=ERmandOne;rounded=1;startFill=0;entryX=0.5;entryY=0;entryDx=0;entryDy=0;" parent="1" target="Uc1FhO2TL07He-8L5F3z-11" edge="1">
          <mxGeometry width="100" height="100" relative="1" as="geometry">
            <mxPoint x="1120" y="335" as="sourcePoint" />
            <mxPoint x="1340" y="620" as="targetPoint" />
            <Array as="points">
              <mxPoint x="1560" y="340" />
            </Array>
          </mxGeometry>
        </mxCell>
        <mxCell id="Uc1FhO2TL07He-8L5F3z-31" value="" style="fontSize=12;html=1;endArrow=ERoneToMany;endFill=0;startArrow=ERmandOne;rounded=1;startFill=0;exitX=0.5;exitY=1;exitDx=0;exitDy=0;entryX=0;entryY=0.5;entryDx=0;entryDy=0;" parent="1" source="Uc1FhO2TL07He-8L5F3z-6" target="Uc1FhO2TL07He-8L5F3z-11" edge="1">
          <mxGeometry width="100" height="100" relative="1" as="geometry">
            <mxPoint x="1130" y="345" as="sourcePoint" />
            <mxPoint x="1180" y="920" as="targetPoint" />
            <Array as="points">
              <mxPoint x="580" y="995" />
            </Array>
          </mxGeometry>
        </mxCell>
        <mxCell id="Uc1FhO2TL07He-8L5F3z-32" value="" style="fontSize=12;html=1;endArrow=ERzeroToMany;endFill=0;startArrow=ERmandOne;rounded=1;startFill=0;entryX=0;entryY=0.5;entryDx=0;entryDy=0;exitX=1;exitY=0.5;exitDx=0;exitDy=0;fillColor=#ffe6cc;strokeColor=#d79b00;" parent="1" source="uDrUdtQKj3C7chHD4qGm-2" target="Uc1FhO2TL07He-8L5F3z-14" edge="1">
          <mxGeometry width="100" height="100" relative="1" as="geometry">
            <mxPoint x="1130" y="345" as="sourcePoint" />
            <mxPoint x="1570" y="930" as="targetPoint" />
            <Array as="points" />
          </mxGeometry>
        </mxCell>
        <mxCell id="Uc1FhO2TL07He-8L5F3z-34" value="" style="fontSize=12;html=1;endArrow=ERmandOne;endFill=0;startArrow=ERzeroToMany;rounded=1;startFill=0;exitX=1;exitY=1;exitDx=0;exitDy=0;entryX=0;entryY=0;entryDx=0;entryDy=0;" parent="1" source="Uc1FhO2TL07He-8L5F3z-14" target="Uc1FhO2TL07He-8L5F3z-11" edge="1">
          <mxGeometry width="100" height="100" relative="1" as="geometry">
            <mxPoint x="1370" y="880" as="sourcePoint" />
            <mxPoint x="1450" y="960" as="targetPoint" />
          </mxGeometry>
        </mxCell>
        <mxCell id="Uc1FhO2TL07He-8L5F3z-36" value="" style="fontSize=12;html=1;endArrow=ERmandOne;endFill=0;startArrow=ERzeroToMany;rounded=1;startFill=0;entryX=1;entryY=0.75;entryDx=0;entryDy=0;exitX=0;exitY=0;exitDx=0;exitDy=0;" parent="1" source="Uc1FhO2TL07He-8L5F3z-13" target="Uc1FhO2TL07He-8L5F3z-10" edge="1">
          <mxGeometry width="100" height="100" relative="1" as="geometry">
            <mxPoint x="1240" y="610" as="sourcePoint" />
            <mxPoint x="1400" y="680" as="targetPoint" />
          </mxGeometry>
        </mxCell>
        <mxCell id="Uc1FhO2TL07He-8L5F3z-37" value="" style="fontSize=12;html=1;endArrow=ERmandOne;endFill=0;startArrow=ERzeroToMany;rounded=1;startFill=0;entryX=1;entryY=1;entryDx=0;entryDy=0;exitX=0.5;exitY=0;exitDx=0;exitDy=0;" parent="1" source="Uc1FhO2TL07He-8L5F3z-13" target="Uc1FhO2TL07He-8L5F3z-8" edge="1">
          <mxGeometry width="100" height="100" relative="1" as="geometry">
            <mxPoint x="1330" y="602" as="sourcePoint" />
            <mxPoint x="1250" y="520" as="targetPoint" />
            <Array as="points">
              <mxPoint x="1280" y="480" />
            </Array>
          </mxGeometry>
        </mxCell>
      </root>
    </mxGraphModel>
  </diagram>
</mxfile>
